# Blender 5.2.0 LTS
# www.blender.org
mtllib ChairWithUVMapping.mtl
o 3_pickets
v 2.237082 6.508152 0.858794
v 2.450404 8.907207 0.858794
v 2.057581 6.527430 0.858794
v 2.270904 8.926486 0.858794
v 2.237082 6.508152 0.617779
v 2.450404 8.907207 0.617779
v 2.057581 6.527430 0.617779
v 2.270904 8.926486 0.617779
v 2.237082 6.508152 0.137596
v 2.450404 8.907207 0.137596
v 2.057581 6.527430 0.137596
v 2.270904 8.926486 0.137596
v 2.237082 6.508152 -0.141228
v 2.450404 8.907207 -0.141228
v 2.057581 6.527430 -0.141228
v 2.270904 8.926486 -0.141228
v 2.237082 6.508152 -0.583601
v 2.450404 8.907207 -0.583601
v 2.057581 6.527430 -0.583601
v 2.270904 8.926486 -0.583601
v 2.237082 6.508152 -0.900235
v 2.450404 8.907207 -0.900235
v 2.057581 6.527430 -0.900235
v 2.270904 8.926486 -0.900235
vn -0.0000 -0.0000 1.0000
vn -0.9961 0.0886 -0.0000
vn -0.0000 -0.0000 -1.0000
vn 0.9961 -0.0886 -0.0000
vn -0.1068 -0.9943 -0.0000
vn 0.1068 0.9943 -0.0000
vt 0.869220 0.371997
vt 0.760157 0.393347
vt 0.759873 0.371997
vt 0.752646 0.299245
vt 0.861976 0.270733
vt 0.861976 0.299245
vt 0.869220 0.436634
vt 0.760157 0.415284
vt 0.869504 0.415284
vt 0.756410 0.348178
vt 0.865740 0.319666
vt 0.865740 0.348178
vt 0.933495 0.444162
vt 0.948550 0.428643
vt 0.948550 0.444162
vt 0.948551 0.739643
vt 0.963607 0.724124
vt 0.963607 0.739643
vt 0.869505 0.393347
vt 0.752646 0.270733
vt 0.759873 0.436634
vt 0.756410 0.319666
vt 0.933495 0.428643
vt 0.948551 0.724124
s 0
usemtl Material.006
f 2/1/1 3/2/1 1/3/1
f 4/4/2 7/5/2 3/6/2
f 7/7/3 6/8/3 5/9/3
f 6/10/4 1/11/4 5/12/4
f 7/13/5 1/14/5 3/15/5
f 4/16/6 6/17/6 8/18/6
f 10/1/1 11/2/1 9/3/1
f 12/4/2 15/5/2 11/6/2
f 15/7/3 14/8/3 13/9/3
f 14/10/4 9/11/4 13/12/4
f 15/13/5 9/14/5 11/15/5
f 12/16/6 14/17/6 16/18/6
f 18/1/1 19/2/1 17/3/1
f 20/4/2 23/5/2 19/6/2
f 23/7/3 22/8/3 21/9/3
f 22/10/4 17/11/4 21/12/4
f 23/13/5 17/14/5 19/15/5
f 20/16/6 22/17/6 24/18/6
f 2/1/1 4/19/1 3/2/1
f 4/4/2 8/20/2 7/5/2
f 7/7/3 8/21/3 6/8/3
f 6/10/4 2/22/4 1/11/4
f 7/13/5 5/23/5 1/14/5
f 4/16/6 2/24/6 6/17/6
f 10/1/1 12/19/1 11/2/1
f 12/4/2 16/20/2 15/5/2
f 15/7/3 16/21/3 14/8/3
f 14/10/4 10/22/4 9/11/4
f 15/13/5 13/23/5 9/14/5
f 12/16/6 10/24/6 14/17/6
f 18/1/1 20/19/1 19/2/1
f 20/4/2 24/20/2 23/5/2
f 23/7/3 24/21/3 22/8/3
f 22/10/4 18/22/4 17/11/4
f 23/13/5 21/23/5 17/14/5
f 20/16/6 18/24/6 22/17/6
o ChairBase
v 2.084882 4.922836 -1.596582
v 2.576193 9.497482 -1.596582
v 1.782017 4.955363 -1.596582
v 2.273327 9.530010 -1.596582
v 2.084882 4.922836 -1.867469
v 2.576193 9.497482 -1.867469
v 1.782017 4.955363 -1.867469
v 2.273327 9.530010 -1.867469
v -2.098540 4.828579 1.886538
v -2.098540 4.951361 1.886538
v -2.098540 4.828580 -1.886538
v -2.098540 4.951361 -1.886538
v 2.098541 4.828579 1.886538
v 2.098541 4.951361 1.886538
v 2.098540 4.828580 -1.886539
v 2.098540 4.951361 -1.886539
v 1.794405 0.338417 -1.577971
v 1.794405 4.840021 -1.577971
v 1.794405 0.338417 -1.882579
v 1.794405 4.840021 -1.882579
v 2.097116 0.338418 -1.577971
v 2.097116 4.840020 -1.577971
v 2.097116 0.338418 -1.882579
v 2.097116 4.840021 -1.882579
v 1.794405 0.338417 1.879084
v 1.794405 4.840021 1.879084
v 1.794405 0.338417 1.574476
v 1.794405 4.840021 1.574476
v 2.097116 0.338418 1.879084
v 2.097116 4.840020 1.879084
v 2.097116 0.338418 1.574476
v 2.097116 4.840021 1.574476
v -1.971941 4.347592 1.845746
v -1.971941 4.829240 1.845746
v -1.971941 4.347592 -1.845746
v -1.971941 4.829240 -1.845746
v 1.971941 4.347592 1.845746
v 1.971941 4.829240 1.845746
v 1.971941 4.347592 -1.845746
v 1.971941 4.829240 -1.845746
v -2.090744 0.338418 -1.577971
v -2.090743 4.840021 -1.577971
v -2.090744 0.338418 -1.882579
v -2.090743 4.840021 -1.882579
v -1.788033 0.338418 -1.577971
v -1.788033 4.840021 -1.577971
v -1.788033 0.338418 -1.882579
v -1.788033 4.840021 -1.882579
v -1.927923 2.740575 -1.645584
v 2.034532 2.740574 -1.645584
v -1.927923 2.740575 -1.814966
v 2.034532 2.740574 -1.814966
v -1.927922 2.437865 -1.645584
v 2.034532 2.437864 -1.645584
v -1.927922 2.437865 -1.814966
v 2.034532 2.437864 -1.814966
v -2.090744 0.338418 1.577971
v -2.090743 4.840021 1.577971
v -2.090744 0.338418 1.882579
v -2.090743 4.840021 1.882579
v -1.788033 0.338418 1.577971
v -1.788033 4.840021 1.577971
v -1.788033 0.338418 1.882579
v -1.788033 4.840021 1.882579
v -1.927923 2.740575 1.645584
v 2.034532 2.740574 1.645584
v -1.927923 2.740575 1.814966
v 2.034532 2.740574 1.814966
v -1.927923 2.437865 1.645584
v 2.034532 2.437864 1.645584
v -1.927923 2.437865 1.814966
v 2.034532 2.437864 1.814966
v 2.509164 8.873363 1.616709
v 2.561646 9.362029 1.616709
v 2.206298 8.905890 1.616709
v 2.258780 9.394556 1.616709
v 2.509164 8.873363 -1.595770
v 2.561646 9.362029 -1.595770
v 2.206298 8.905890 -1.595770
v 2.258780 9.394556 -1.595770
v 2.258757 6.080238 1.616709
v 2.306593 6.525640 1.616709
v 1.955891 6.112765 1.616709
v 2.003727 6.558167 1.616709
v 2.258757 6.080238 -1.595770
v 2.306592 6.525640 -1.595770
v 1.955891 6.112765 -1.595770
v 2.003726 6.558167 -1.595770
v 2.084883 4.922836 1.614948
v 2.576193 9.497482 1.614948
v 1.782017 4.955363 1.614948
v 2.273328 9.530010 1.614948
v 2.084883 4.922836 1.885836
v 2.576193 9.497482 1.885836
v 1.782017 4.955363 1.885836
v 2.273328 9.530010 1.885836
v -2.098540 4.828579 -1.868172
v -2.098540 4.951361 -1.868172
v -2.098540 4.828580 1.904905
v -2.098540 4.951361 1.904905
v 2.098540 4.828579 -1.868172
v 2.098540 4.951361 -1.868172
v 2.098541 4.828580 1.904905
v 2.098541 4.951361 1.904905
v 1.794406 0.338417 1.596338
v 1.794406 4.840021 1.596338
v 1.794406 0.338417 1.900946
v 1.794406 4.840021 1.900946
v 2.097116 0.338418 1.596338
v 2.097116 4.840020 1.596338
v 2.097116 0.338418 1.900946
v 2.097116 4.840021 1.900946
v 1.794405 0.338417 -1.860718
v 1.794405 4.840021 -1.860718
v 1.794405 0.338417 -1.556110
v 1.794405 4.840021 -1.556110
v 2.097116 0.338418 -1.860718
v 2.097116 4.840020 -1.860718
v 2.097116 0.338418 -1.556110
v 2.097116 4.840021 -1.556110
v -1.971941 4.347592 -1.827379
v -1.971941 4.829240 -1.827379
v -1.971941 4.347592 1.864113
v -1.971941 4.829240 1.864113
v 1.971941 4.347592 -1.827379
v 1.971941 4.829240 -1.827379
v 1.971942 4.347592 1.864113
v 1.971941 4.829240 1.864113
v -2.090744 0.338418 1.596338
v -2.090743 4.840021 1.596338
v -2.090744 0.338418 1.900946
v -2.090743 4.840021 1.900946
v -1.788033 0.338418 1.596338
v -1.788033 4.840021 1.596338
v -1.788033 0.338418 1.900946
v -1.788033 4.840021 1.900946
v -1.927923 2.740575 1.663951
v 2.034532 2.740574 1.663950
v -1.927923 2.740575 1.833333
v 2.034532 2.740574 1.833333
v -1.927922 2.437865 1.663951
v 2.034532 2.437864 1.663950
v -1.927922 2.437865 1.833333
v 2.034532 2.437864 1.833333
v -2.090744 0.338418 -1.559605
v -2.090743 4.840021 -1.559605
v -2.090744 0.338418 -1.864212
v -2.090743 4.840021 -1.864212
v -1.788033 0.338418 -1.559605
v -1.788033 4.840021 -1.559605
v -1.788033 0.338418 -1.864212
v -1.788033 4.840021 -1.864212
v -1.927923 2.740575 -1.627217
v 2.034532 2.740574 -1.627217
v -1.927923 2.740575 -1.796600
v 2.034532 2.740574 -1.796600
v -1.927923 2.437865 -1.627217
v 2.034532 2.437864 -1.627217
v -1.927923 2.437865 -1.796600
v 2.034532 2.437864 -1.796600
v 2.509164 8.873363 -1.598343
v 2.561646 9.362029 -1.598343
v 2.206298 8.905890 -1.598343
v 2.258780 9.394556 -1.598343
v 2.509164 8.873363 1.614137
v 2.561646 9.362029 1.614137
v 2.206298 8.905890 1.614137
v 2.258780 9.394556 1.614137
v 2.258757 6.080238 -1.598342
v 2.306592 6.525640 -1.598342
v 1.955891 6.112765 -1.598342
v 2.003726 6.558167 -1.598342
v 2.258757 6.080238 1.614137
v 2.306593 6.525640 1.614137
v 1.955891 6.112765 1.614137
v 2.003727 6.558167 1.614137
vn -0.0000 -0.0000 1.0000
vn -0.9943 0.1068 -0.0000
vn -0.0000 -0.0000 -1.0000
vn 0.9943 -0.1068 -0.0000
vn -0.1068 -0.9943 -0.0000
vn 0.1068 0.9943 -0.0000
vn -1.0000 -0.0000 -0.0000
vn 1.0000 -0.0000 -0.0000
vn -0.0000 -1.0000 -0.0000
vn -0.0000 1.0000 -0.0000
vt 0.523263 0.102571
vt 0.732115 0.066536
vt 0.732115 0.102571
vt 0.717746 0.754700
vt 0.925966 0.722654
vt 0.925966 0.754700
vt 0.523263 0.046110
vt 0.732115 0.010075
vt 0.732115 0.046110
vt 0.732802 0.811161
vt 0.941022 0.779115
vt 0.941022 0.811161
vt 0.927865 0.493096
vt 0.944786 0.466984
vt 0.944786 0.493096
vt 0.931629 0.404640
vt 0.948550 0.378533
vt 0.948550 0.404640
vt 0.754259 0.207767
vt 0.989955 0.218317
vt 0.754259 0.218317
vt 0.527100 0.959843
vt 0.788191 0.949259
vt 0.788577 0.959843
vt 0.754259 0.239762
vt 0.989955 0.250312
vt 0.754259 0.250312
vt 0.237266 0.949259
vt 0.498356 0.959843
vt 0.236880 0.959843
vt 0.266810 0.016734
vt 0.502506 0.377350
vt 0.266810 0.377350
vt 0.246548 0.370763
vt 0.010852 0.010114
vt 0.246548 0.010114
vt 0.490219 0.760346
vt 0.694474 0.724311
vt 0.694474 0.760346
vt 0.529201 0.498742
vt 0.735879 0.463112
vt 0.734582 0.498742
vt 0.470511 0.780772
vt 0.266255 0.816807
vt 0.266255 0.780772
vt 0.728936 0.236326
vt 0.524852 0.271955
vt 0.523555 0.236326
vt 0.910702 0.896193
vt 0.929730 0.922202
vt 0.910702 0.922202
vt 0.914674 0.357588
vt 0.895645 0.331577
vt 0.914674 0.331577
vt 0.019707 0.790459
vt 0.223963 0.754423
vt 0.223963 0.790459
vt 0.523555 0.215494
vt 0.730233 0.179864
vt 0.728936 0.215494
vt 0.453573 0.837233
vt 0.249317 0.873269
vt 0.249317 0.837233
vt 0.728936 0.292787
vt 0.524852 0.328417
vt 0.523555 0.292787
vt 0.929522 0.275118
vt 0.948550 0.301127
vt 0.929522 0.301127
vt 0.801751 0.918438
vt 0.782723 0.892426
vt 0.801751 0.892426
vt 0.262496 0.597567
vt 0.493096 0.638954
vt 0.262496 0.638954
vt 0.261879 0.411115
vt 0.509093 0.452632
vt 0.263391 0.452632
vt 0.262496 0.535459
vt 0.493096 0.576847
vt 0.262496 0.576847
vt 0.263391 0.473222
vt 0.507581 0.514739
vt 0.261879 0.514739
vt 0.240902 0.732115
vt 0.010302 0.393224
vt 0.240902 0.393224
vt 0.477044 0.877033
vt 0.681300 0.840998
vt 0.681300 0.877033
vt 0.734582 0.442280
vt 0.530498 0.406651
vt 0.735879 0.406651
vt 0.707649 0.784536
vt 0.503393 0.820571
vt 0.503393 0.784536
vt 0.467332 0.724716
vt 0.263248 0.760346
vt 0.261950 0.724716
vt 0.826010 0.892429
vt 0.845038 0.918438
vt 0.826010 0.918438
vt 0.910910 0.388038
vt 0.891881 0.414050
vt 0.891881 0.388038
vt 0.753702 0.030113
vt 0.933494 0.010075
vt 0.933494 0.030113
vt 0.484617 0.899873
vt 0.238708 0.925966
vt 0.237758 0.899873
vt 0.933494 0.122997
vt 0.753718 0.143035
vt 0.753718 0.122997
vt 0.508773 0.925966
vt 0.756582 0.899873
vt 0.755632 0.925966
vt 0.952315 0.324376
vt 0.938579 0.344414
vt 0.938579 0.324376
vt 0.812482 0.959843
vt 0.826218 0.939805
vt 0.826218 0.959843
vt 0.214553 0.867346
vt 0.010297 0.903381
vt 0.010297 0.867346
vt 0.525437 0.384878
vt 0.732115 0.349248
vt 0.730818 0.384878
vt 0.021590 0.846920
vt 0.225845 0.810885
vt 0.225845 0.846920
vt 0.728936 0.123403
vt 0.524852 0.159033
vt 0.523555 0.123403
vt 0.888117 0.459556
vt 0.907145 0.485567
vt 0.888117 0.485567
vt 0.888325 0.918438
vt 0.869297 0.892429
vt 0.888325 0.892429
vt 0.933494 0.164402
vt 0.753718 0.184440
vt 0.753718 0.164402
vt 0.708269 0.675910
vt 0.956079 0.702003
vt 0.709220 0.702003
vt 0.753702 0.086574
vt 0.933494 0.066536
vt 0.933494 0.086574
vt 0.704505 0.869505
vt 0.952315 0.843412
vt 0.951364 0.869505
vt 0.863858 0.943569
vt 0.850123 0.963607
vt 0.850123 0.943569
vt 0.921641 0.963607
vt 0.935376 0.943569
vt 0.935376 0.963607
vt 0.756857 0.494978
vt 0.779166 0.458942
vt 0.779166 0.494978
vt 0.485328 0.659881
vt 0.686005 0.702003
vt 0.485328 0.702003
vt 0.802026 0.494978
vt 0.824336 0.458943
vt 0.824336 0.494978
vt 0.262306 0.659881
vt 0.462983 0.702003
vt 0.262306 0.702003
vt 0.740346 0.547675
vt 0.941022 0.521563
vt 0.941022 0.547675
vt 0.740346 0.641777
vt 0.941022 0.615671
vt 0.941022 0.641777
vt 0.845406 0.500624
vt 0.865740 0.464589
vt 0.865740 0.500624
vt 0.516382 0.595856
vt 0.717059 0.634249
vt 0.516382 0.634249
vt 0.886811 0.308655
vt 0.907145 0.272620
vt 0.907145 0.308655
vt 0.515441 0.536572
vt 0.716118 0.574964
vt 0.515441 0.574965
vt 0.740346 0.594726
vt 0.941022 0.568614
vt 0.941022 0.594726
vt 0.010112 0.952314
vt 0.210789 0.926208
vt 0.210789 0.952315
vt 0.526715 0.949259
vt 0.507581 0.411115
vt 0.529201 0.442280
vt 0.910910 0.414050
vt 0.955128 0.675910
vt 0.523263 0.066536
vt 0.717746 0.722654
vt 0.523263 0.010075
vt 0.732802 0.779115
vt 0.927865 0.466984
vt 0.931629 0.378533
vt 0.989955 0.207767
vt 0.989955 0.239761
vt 0.498742 0.949259
vt 0.502506 0.016734
vt 0.010852 0.370763
vt 0.490219 0.724311
vt 0.530498 0.463112
vt 0.470511 0.816807
vt 0.730233 0.271955
vt 0.929730 0.896193
vt 0.895645 0.357588
vt 0.019707 0.754423
vt 0.524852 0.179864
vt 0.453573 0.873269
vt 0.730233 0.328417
vt 0.948550 0.275118
vt 0.782723 0.918438
vt 0.493096 0.597567
vt 0.493096 0.535459
vt 0.509093 0.473222
vt 0.010302 0.732115
vt 0.477044 0.840998
vt 0.707649 0.820571
vt 0.468629 0.760346
vt 0.845038 0.892428
vt 0.753702 0.010075
vt 0.485567 0.925966
vt 0.933494 0.143035
vt 0.509723 0.899873
vt 0.952315 0.344414
vt 0.812482 0.939805
vt 0.214553 0.903381
vt 0.526734 0.349248
vt 0.021590 0.810885
vt 0.730233 0.159033
vt 0.907145 0.459556
vt 0.869297 0.918438
vt 0.933494 0.184440
vt 0.753702 0.066536
vt 0.705455 0.843412
vt 0.863858 0.963607
vt 0.921641 0.943569
vt 0.756857 0.458942
vt 0.686005 0.659881
vt 0.802026 0.458943
vt 0.462983 0.659881
vt 0.740346 0.521563
vt 0.740346 0.615671
vt 0.845406 0.464589
vt 0.717059 0.595856
vt 0.886811 0.272620
vt 0.716118 0.536572
vt 0.740346 0.568614
vt 0.010112 0.926208
s 0
usemtl Material.012
f 26/25/7 27/26/7 25/27/7
f 28/28/8 31/29/8 27/30/8
f 32/31/9 29/32/9 31/33/9
f 30/34/10 25/35/10 29/36/10
f 31/37/11 25/38/11 27/39/11
f 28/40/12 30/41/12 32/42/12
f 115/26/9 114/25/9 113/27/9
f 119/29/8 116/28/8 115/30/8
f 117/32/7 120/31/7 119/33/7
f 113/35/10 118/34/10 117/36/10
f 113/38/11 119/37/11 115/39/11
f 118/41/12 116/40/12 120/42/12
f 26/25/7 28/225/7 27/26/7
f 28/28/8 32/226/8 31/29/8
f 32/31/9 30/227/9 29/32/9
f 30/34/10 26/228/10 25/35/10
f 31/37/11 29/229/11 25/38/11
f 28/40/12 26/230/12 30/41/12
f 115/26/9 116/225/9 114/25/9
f 119/29/8 120/226/8 116/28/8
f 117/32/7 118/227/7 120/31/7
f 113/35/10 114/228/10 118/34/10
f 113/38/11 117/229/11 119/37/11
f 118/41/12 114/230/12 116/40/12
usemtl Material.007
f 34/43/13 35/44/13 33/45/13
f 35/46/9 40/47/9 39/48/9
f 40/49/14 37/50/14 39/51/14
f 38/52/7 33/53/7 37/54/7
f 39/55/15 33/56/15 35/57/15
f 36/58/16 38/59/16 40/60/16
f 123/44/13 122/43/13 121/45/13
f 123/46/7 128/47/7 124/220/7
f 125/50/14 128/49/14 127/51/14
f 121/53/9 126/52/9 125/54/9
f 121/56/15 127/55/15 123/57/15
f 126/59/16 124/58/16 128/60/16
f 34/43/13 36/231/13 35/44/13
f 35/46/9 36/220/9 40/47/9
f 40/49/14 38/232/14 37/50/14
f 38/52/7 34/233/7 33/53/7
f 39/55/15 37/234/15 33/56/15
f 36/58/16 34/235/16 38/59/16
f 123/44/13 124/231/13 122/43/13
f 123/46/7 127/48/7 128/47/7
f 125/50/14 126/232/14 128/49/14
f 121/53/9 122/233/9 126/52/9
f 121/56/15 125/234/15 127/55/15
f 126/59/16 122/235/16 124/58/16
usemtl Material.015
f 42/61/13 43/62/13 41/63/13
f 44/64/9 47/65/9 43/66/9
f 48/67/14 45/68/14 47/69/14
f 46/70/7 41/71/7 45/72/7
f 47/73/15 41/74/15 43/75/15
f 44/76/16 46/77/16 48/78/16
f 131/62/13 130/61/13 129/63/13
f 135/65/7 132/64/7 131/66/7
f 133/68/14 136/67/14 135/69/14
f 129/71/9 134/70/9 133/72/9
f 129/74/15 135/73/15 131/75/15
f 134/77/16 132/76/16 136/78/16
f 42/61/13 44/236/13 43/62/13
f 44/64/9 48/237/9 47/65/9
f 48/67/14 46/238/14 45/68/14
f 46/70/7 42/239/7 41/71/7
f 47/73/15 45/240/15 41/74/15
f 44/76/16 42/241/16 46/77/16
f 131/62/13 132/236/13 130/61/13
f 135/65/7 136/237/7 132/64/7
f 133/68/14 134/238/14 136/67/14
f 129/71/9 130/239/9 134/70/9
f 129/74/15 133/240/15 135/73/15
f 134/77/16 130/241/16 132/76/16
usemtl Material.016
f 50/79/13 51/80/13 49/81/13
f 52/82/9 55/83/9 51/84/9
f 56/85/14 53/86/14 55/87/14
f 54/88/7 49/89/7 53/90/7
f 55/91/15 49/92/15 51/93/15
f 52/94/16 54/95/16 56/96/16
f 139/80/13 138/79/13 137/81/13
f 143/83/7 140/82/7 139/84/7
f 141/86/14 144/85/14 143/87/14
f 137/89/9 142/88/9 141/90/9
f 137/92/15 143/91/15 139/93/15
f 142/95/16 140/94/16 144/96/16
f 50/79/13 52/242/13 51/80/13
f 52/82/9 56/243/9 55/83/9
f 56/85/14 54/244/14 53/86/14
f 54/88/7 50/245/7 49/89/7
f 55/91/15 53/246/15 49/92/15
f 52/94/16 50/247/16 54/95/16
f 139/80/13 140/242/13 138/79/13
f 143/83/7 144/243/7 140/82/7
f 141/86/14 142/244/14 144/85/14
f 137/89/9 138/245/9 142/88/9
f 137/92/15 141/246/15 143/91/15
f 142/95/16 138/247/16 140/94/16
usemtl Material.008
f 58/97/13 59/98/13 57/99/13
f 60/100/9 63/101/9 59/102/9
f 64/103/14 61/104/14 63/105/14
f 62/106/7 57/107/7 61/108/7
f 60/109/16 62/110/16 64/111/16
f 147/98/13 146/97/13 145/99/13
f 147/102/7 152/221/7 148/100/7
f 149/104/14 152/103/14 151/105/14
f 145/107/9 150/106/9 149/108/9
f 150/110/16 148/109/16 152/111/16
f 58/97/13 60/248/13 59/98/13
f 60/100/9 64/221/9 63/101/9
f 64/103/14 62/249/14 61/104/14
f 62/106/7 58/250/7 57/107/7
f 60/109/16 58/251/16 62/110/16
f 147/98/13 148/248/13 146/97/13
f 147/102/7 151/101/7 152/221/7
f 149/104/14 150/249/14 152/103/14
f 145/107/9 146/250/9 150/106/9
f 150/110/16 146/251/16 148/109/16
usemtl Material.014
f 66/112/13 67/113/13 65/114/13
f 67/115/9 72/116/9 71/117/9
f 72/118/14 69/119/14 71/120/14
f 70/121/7 65/122/7 69/123/7
f 71/124/15 65/125/15 67/126/15
f 72/127/16 66/128/16 70/129/16
f 74/130/16 75/131/16 73/132/16
f 76/133/9 79/134/9 75/135/9
f 80/136/15 77/137/15 79/138/15
f 78/139/7 73/140/7 77/141/7
f 79/142/13 73/143/13 75/144/13
f 76/145/14 78/146/14 80/147/14
f 155/113/13 154/112/13 153/114/13
f 155/115/7 160/116/7 156/222/7
f 157/119/14 160/118/14 159/120/14
f 153/122/9 158/121/9 157/123/9
f 153/125/15 159/124/15 155/126/15
f 160/127/16 154/128/16 156/223/16
f 163/131/16 162/130/16 161/132/16
f 167/134/7 164/133/7 163/135/7
f 165/137/15 168/136/15 167/138/15
f 161/140/9 166/139/9 165/141/9
f 161/143/13 167/142/13 163/144/13
f 166/146/14 164/145/14 168/147/14
f 66/112/13 68/252/13 67/113/13
f 67/115/9 68/222/9 72/116/9
f 72/118/14 70/253/14 69/119/14
f 70/121/7 66/254/7 65/122/7
f 71/124/15 69/255/15 65/125/15
f 72/127/16 68/223/16 66/128/16
f 74/130/16 76/256/16 75/131/16
f 76/133/9 80/257/9 79/134/9
f 80/136/15 78/258/15 77/137/15
f 78/139/7 74/259/7 73/140/7
f 79/142/13 77/260/13 73/143/13
f 76/145/14 74/261/14 78/146/14
f 155/113/13 156/252/13 154/112/13
f 155/115/7 159/117/7 160/116/7
f 157/119/14 158/253/14 160/118/14
f 153/122/9 154/254/9 158/121/9
f 153/125/15 157/255/15 159/124/15
f 160/127/16 158/129/16 154/128/16
f 163/131/16 164/256/16 162/130/16
f 167/134/7 168/257/7 164/133/7
f 165/137/15 166/258/15 168/136/15
f 161/140/9 162/259/9 166/139/9
f 161/143/13 165/260/13 167/142/13
f 166/146/14 162/261/14 164/145/14
usemtl Material.013
f 82/148/14 83/149/14 81/150/14
f 84/151/9 87/152/9 83/153/9
f 88/154/13 85/155/13 87/156/13
f 86/157/7 81/158/7 85/159/7
f 87/160/16 81/161/16 83/162/16
f 84/163/15 86/164/15 88/165/15
f 90/166/15 91/167/15 89/168/15
f 91/169/9 96/170/9 95/171/9
f 96/172/16 93/173/16 95/174/16
f 94/175/7 89/176/7 93/177/7
f 95/178/14 89/179/14 91/180/14
f 92/181/13 94/182/13 96/183/13
f 171/149/14 170/148/14 169/150/14
f 175/152/7 172/151/7 171/153/7
f 173/155/13 176/154/13 175/156/13
f 169/158/9 174/157/9 173/159/9
f 169/161/16 175/160/16 171/162/16
f 174/164/15 172/163/15 176/165/15
f 179/167/15 178/166/15 177/168/15
f 183/171/7 180/224/7 179/169/7
f 181/173/16 184/172/16 183/174/16
f 177/176/9 182/175/9 181/177/9
f 177/179/14 183/178/14 179/180/14
f 182/182/13 180/181/13 184/183/13
f 82/148/14 84/262/14 83/149/14
f 84/151/9 88/263/9 87/152/9
f 88/154/13 86/264/13 85/155/13
f 86/157/7 82/265/7 81/158/7
f 87/160/16 85/266/16 81/161/16
f 84/163/15 82/267/15 86/164/15
f 90/166/15 92/268/15 91/167/15
f 91/169/9 92/224/9 96/170/9
f 96/172/16 94/269/16 93/173/16
f 94/175/7 90/270/7 89/176/7
f 95/178/14 93/271/14 89/179/14
f 92/181/13 90/272/13 94/182/13
f 171/149/14 172/262/14 170/148/14
f 175/152/7 176/263/7 172/151/7
f 173/155/13 174/264/13 176/154/13
f 169/158/9 170/265/9 174/157/9
f 169/161/16 173/266/16 175/160/16
f 174/164/15 170/267/15 172/163/15
f 179/167/15 180/268/15 178/166/15
f 183/171/7 184/170/7 180/224/7
f 181/173/16 182/269/16 184/172/16
f 177/176/9 178/270/9 182/175/9
f 177/179/14 181/271/14 183/178/14
f 182/182/13 178/272/13 180/181/13
usemtl Material.009
f 98/184/7 99/185/7 97/186/7
f 100/187/8 103/188/8 99/189/8
f 104/190/9 101/191/9 103/192/9
f 102/193/10 97/194/10 101/195/10
f 103/196/11 97/197/11 99/198/11
f 100/199/12 102/200/12 104/201/12
f 187/185/9 186/184/9 185/186/9
f 191/188/8 188/187/8 187/189/8
f 189/191/7 192/190/7 191/192/7
f 185/194/10 190/193/10 189/195/10
f 185/197/11 191/196/11 187/198/11
f 190/200/12 188/199/12 192/201/12
f 98/184/7 100/273/7 99/185/7
f 100/187/8 104/274/8 103/188/8
f 104/190/9 102/275/9 101/191/9
f 102/193/10 98/276/10 97/194/10
f 103/196/11 101/277/11 97/197/11
f 100/199/12 98/278/12 102/200/12
f 187/185/9 188/273/9 186/184/9
f 191/188/8 192/274/8 188/187/8
f 189/191/7 190/275/7 192/190/7
f 185/194/10 186/276/10 190/193/10
f 185/197/11 189/277/11 191/196/11
f 190/200/12 186/278/12 188/199/12
usemtl Material.011
f 106/202/7 107/203/7 105/204/7
f 108/205/8 111/206/8 107/207/8
f 112/208/9 109/209/9 111/210/9
f 110/211/10 105/212/10 109/213/10
f 111/214/11 105/215/11 107/216/11
f 108/217/12 110/218/12 112/219/12
f 195/203/9 194/202/9 193/204/9
f 199/206/8 196/205/8 195/207/8
f 197/209/7 200/208/7 199/210/7
f 193/212/10 198/211/10 197/213/10
f 193/215/11 199/214/11 195/216/11
f 198/218/12 196/217/12 200/219/12
f 106/202/7 108/279/7 107/203/7
f 108/205/8 112/280/8 111/206/8
f 112/208/9 110/281/9 109/209/9
f 110/211/10 106/282/10 105/212/10
f 111/214/11 109/283/11 105/215/11
f 108/217/12 106/284/12 110/218/12
f 195/203/9 196/279/9 194/202/9
f 199/206/8 200/280/8 196/205/8
f 197/209/7 198/281/7 200/208/7
f 193/212/10 194/282/10 198/211/10
f 193/215/11 197/283/11 199/214/11
f 198/218/12 194/284/12 196/217/12
